<?xml version="1.0" standalone="no"?>
<!DOCTYPE svg PUBLIC "-//W3C//DTD SVG 20010904//EN"
 "http://www.w3.org/TR/2001/REC-SVG-20010904/DTD/svg10.dtd">
<svg version="1.0" xmlns="http://www.w3.org/2000/svg"
 width="219.000000pt" height="219.000000pt" viewBox="0 0 219.000000 219.000000"
 preserveAspectRatio="xMidYMid meet">
<metadata>
Created by potrace 1.11, written by Peter Selinger 2001-2013
</metadata>
<g transform="translate(0.000000,219.000000) scale(0.100000,-0.100000)"
fill="#000000" stroke="none">
<path d="M1058 2135 c-2 -1 -37 -5 -78 -8 -218 -18 -463 -132 -623 -290 -149
-148 -271 -376 -302 -567 -11 -66 -14 -286 -4 -329 4 -20 11 -52 14 -71 22
-135 121 -337 220 -450 214 -244 497 -375 810 -374 124 1 207 14 317 50 378
124 654 444 715 829 10 61 9 285 -1 340 -52 284 -215 533 -451 690 -174 116
-330 166 -562 179 -29 2 -54 2 -55 1z m210 -199 c95 -20 216 -69 292 -118 59
-38 186 -156 235 -218 24 -31 106 -192 123 -242 43 -124 51 -350 19 -473 -85
-318 -332 -562 -644 -636 -395 -94 -800 95 -982 458 -57 114 -83 224 -85 358
-1 136 6 193 36 285 121 374 470 618 861 603 42 -1 108 -9 145 -17z"/>
<path d="M958 1790 c-62 -11 -133 -47 -146 -74 -14 -32 -6 -75 23 -115 67 -91
96 -141 99 -167 7 -60 -14 -69 -62 -29 -20 16 -44 58 -68 116 -59 143 -109
163 -205 84 -86 -71 -194 -262 -203 -360 -7 -78 44 -120 132 -109 134 16 185
10 218 -27 17 -19 17 -21 -9 -47 -26 -25 -31 -26 -114 -23 -182 6 -171 8 -200
-21 -21 -21 -26 -36 -26 -70 3 -152 190 -418 293 -418 45 0 74 33 114 129 24
58 48 100 68 116 48 40 69 31 62 -29 -3 -26 -30 -73 -98 -166 -63 -88 -27
-156 99 -187 11 -3 65 -7 120 -10 215 -11 350 50 317 145 -5 16 -33 60 -61 99
-53 73 -69 111 -63 151 9 60 80 -3 124 -110 56 -138 103 -166 184 -112 128 87
255 337 222 436 -13 37 -60 57 -122 51 -28 -3 -82 -5 -119 -6 -61 0 -71 3 -95
26 -25 25 -25 27 -8 46 33 36 88 44 206 27 110 -15 160 34 139 136 -35 166
-197 378 -290 378 -35 0 -83 -47 -99 -97 -25 -76 -71 -151 -101 -164 -36 -14
-41 -10 -41 36 0 35 11 55 100 180 12 18 25 44 28 59 6 33 -21 80 -54 96 -75
34 -256 49 -364 30z m185 -191 l28 -27 -39 -42 -39 -42 -41 40 -42 41 38 39
c40 42 41 42 95 -9z m-407 -245 c7 -27 12 -49 11 -50 -12 -8 -75 -24 -92 -24
-18 0 -24 7 -29 38 -4 20 -9 44 -12 53 -3 12 7 18 43 26 27 5 52 9 57 9 5 -1
15 -24 22 -52z m797 40 c28 -5 36 -10 33 -23 -3 -9 -8 -33 -12 -54 l-7 -39
-45 7 c-59 9 -72 14 -67 28 2 7 9 31 15 55 9 33 15 42 28 38 9 -3 34 -8 55
-12z m-828 -505 c48 -12 49 -17 24 -85 -4 -12 -5 -25 -1 -29 7 -7 -53 2 -93
14 -19 5 -20 11 -12 59 9 57 12 59 82 41z m853 -40 c7 -29 11 -53 9 -55 -4 -4
-67 -16 -91 -18 -10 0 -20 6 -22 14 -2 8 -7 32 -12 52 -9 36 -9 37 27 46 71
19 76 17 89 -39z m-423 -205 l38 -36 -42 -41 -41 -42 -40 40 -40 40 36 38 c19
20 39 37 44 37 4 0 25 -16 45 -36z"/>
</g>
</svg>
